G04 #@! TF.GenerationSoftware,KiCad,Pcbnew,(5.1.4-0-10_14)*
G04 #@! TF.CreationDate,2020-11-07T12:11:02-05:00*
G04 #@! TF.ProjectId,FabISP,46616249-5350-42e6-9b69-6361645f7063,rev?*
G04 #@! TF.SameCoordinates,Original*
G04 #@! TF.FileFunction,Soldermask,Top*
G04 #@! TF.FilePolarity,Negative*
%FSLAX46Y46*%
G04 Gerber Fmt 4.6, Leading zero omitted, Abs format (unit mm)*
G04 Created by KiCad (PCBNEW (5.1.4-0-10_14)) date 2020-11-07 12:11:02*
%MOMM*%
%LPD*%
G04 APERTURE LIST*
%ADD10C,0.100000*%
G04 APERTURE END LIST*
D10*
G36*
X162418604Y-103078347D02*
G01*
X162455144Y-103089432D01*
X162488821Y-103107433D01*
X162518341Y-103131659D01*
X162542567Y-103161179D01*
X162560568Y-103194856D01*
X162571653Y-103231396D01*
X162576000Y-103275538D01*
X162576000Y-104724462D01*
X162571653Y-104768604D01*
X162560568Y-104805144D01*
X162542567Y-104838821D01*
X162518341Y-104868341D01*
X162488821Y-104892567D01*
X162455144Y-104910568D01*
X162418604Y-104921653D01*
X162374462Y-104926000D01*
X161425538Y-104926000D01*
X161381396Y-104921653D01*
X161344856Y-104910568D01*
X161311179Y-104892567D01*
X161281659Y-104868341D01*
X161257433Y-104838821D01*
X161239432Y-104805144D01*
X161228347Y-104768604D01*
X161224000Y-104724462D01*
X161224000Y-103275538D01*
X161228347Y-103231396D01*
X161239432Y-103194856D01*
X161257433Y-103161179D01*
X161281659Y-103131659D01*
X161311179Y-103107433D01*
X161344856Y-103089432D01*
X161381396Y-103078347D01*
X161425538Y-103074000D01*
X162374462Y-103074000D01*
X162418604Y-103078347D01*
X162418604Y-103078347D01*
G37*
G36*
X159618604Y-103078347D02*
G01*
X159655144Y-103089432D01*
X159688821Y-103107433D01*
X159718341Y-103131659D01*
X159742567Y-103161179D01*
X159760568Y-103194856D01*
X159771653Y-103231396D01*
X159776000Y-103275538D01*
X159776000Y-104724462D01*
X159771653Y-104768604D01*
X159760568Y-104805144D01*
X159742567Y-104838821D01*
X159718341Y-104868341D01*
X159688821Y-104892567D01*
X159655144Y-104910568D01*
X159618604Y-104921653D01*
X159574462Y-104926000D01*
X158625538Y-104926000D01*
X158581396Y-104921653D01*
X158544856Y-104910568D01*
X158511179Y-104892567D01*
X158481659Y-104868341D01*
X158457433Y-104838821D01*
X158439432Y-104805144D01*
X158428347Y-104768604D01*
X158424000Y-104724462D01*
X158424000Y-103275538D01*
X158428347Y-103231396D01*
X158439432Y-103194856D01*
X158457433Y-103161179D01*
X158481659Y-103131659D01*
X158511179Y-103107433D01*
X158544856Y-103089432D01*
X158581396Y-103078347D01*
X158625538Y-103074000D01*
X159574462Y-103074000D01*
X159618604Y-103078347D01*
X159618604Y-103078347D01*
G37*
G36*
X150000450Y-103548520D02*
G01*
X145999550Y-103548520D01*
X145999550Y-102648960D01*
X150000450Y-102648960D01*
X150000450Y-103548520D01*
X150000450Y-103548520D01*
G37*
G36*
X157051000Y-102801000D02*
G01*
X154949000Y-102801000D01*
X154949000Y-102199000D01*
X157051000Y-102199000D01*
X157051000Y-102801000D01*
X157051000Y-102801000D01*
G37*
G36*
X153751000Y-102801000D02*
G01*
X151649000Y-102801000D01*
X151649000Y-102199000D01*
X153751000Y-102199000D01*
X153751000Y-102801000D01*
X153751000Y-102801000D01*
G37*
G36*
X162418604Y-100578347D02*
G01*
X162455144Y-100589432D01*
X162488821Y-100607433D01*
X162518341Y-100631659D01*
X162542567Y-100661179D01*
X162560568Y-100694856D01*
X162571653Y-100731396D01*
X162576000Y-100775538D01*
X162576000Y-102224462D01*
X162571653Y-102268604D01*
X162560568Y-102305144D01*
X162542567Y-102338821D01*
X162518341Y-102368341D01*
X162488821Y-102392567D01*
X162455144Y-102410568D01*
X162418604Y-102421653D01*
X162374462Y-102426000D01*
X161425538Y-102426000D01*
X161381396Y-102421653D01*
X161344856Y-102410568D01*
X161311179Y-102392567D01*
X161281659Y-102368341D01*
X161257433Y-102338821D01*
X161239432Y-102305144D01*
X161228347Y-102268604D01*
X161224000Y-102224462D01*
X161224000Y-100775538D01*
X161228347Y-100731396D01*
X161239432Y-100694856D01*
X161257433Y-100661179D01*
X161281659Y-100631659D01*
X161311179Y-100607433D01*
X161344856Y-100589432D01*
X161381396Y-100578347D01*
X161425538Y-100574000D01*
X162374462Y-100574000D01*
X162418604Y-100578347D01*
X162418604Y-100578347D01*
G37*
G36*
X159618604Y-100578347D02*
G01*
X159655144Y-100589432D01*
X159688821Y-100607433D01*
X159718341Y-100631659D01*
X159742567Y-100661179D01*
X159760568Y-100694856D01*
X159771653Y-100731396D01*
X159776000Y-100775538D01*
X159776000Y-102224462D01*
X159771653Y-102268604D01*
X159760568Y-102305144D01*
X159742567Y-102338821D01*
X159718341Y-102368341D01*
X159688821Y-102392567D01*
X159655144Y-102410568D01*
X159618604Y-102421653D01*
X159574462Y-102426000D01*
X158625538Y-102426000D01*
X158581396Y-102421653D01*
X158544856Y-102410568D01*
X158511179Y-102392567D01*
X158481659Y-102368341D01*
X158457433Y-102338821D01*
X158439432Y-102305144D01*
X158428347Y-102268604D01*
X158424000Y-102224462D01*
X158424000Y-100775538D01*
X158428347Y-100731396D01*
X158439432Y-100694856D01*
X158457433Y-100661179D01*
X158481659Y-100631659D01*
X158511179Y-100607433D01*
X158544856Y-100589432D01*
X158581396Y-100578347D01*
X158625538Y-100574000D01*
X159574462Y-100574000D01*
X159618604Y-100578347D01*
X159618604Y-100578347D01*
G37*
G36*
X136449780Y-102299090D02*
G01*
X135550220Y-102299090D01*
X135550220Y-100599430D01*
X136449780Y-100599430D01*
X136449780Y-102299090D01*
X136449780Y-102299090D01*
G37*
G36*
X150000450Y-102199780D02*
G01*
X145999550Y-102199780D01*
X145999550Y-101300220D01*
X150000450Y-101300220D01*
X150000450Y-102199780D01*
X150000450Y-102199780D01*
G37*
G36*
X150000450Y-100851040D02*
G01*
X145999550Y-100851040D01*
X145999550Y-99951480D01*
X150000450Y-99951480D01*
X150000450Y-100851040D01*
X150000450Y-100851040D01*
G37*
G36*
X139449780Y-100799090D02*
G01*
X138550220Y-100799090D01*
X138550220Y-99099430D01*
X139449780Y-99099430D01*
X139449780Y-100799090D01*
X139449780Y-100799090D01*
G37*
G36*
X129063061Y-100049660D02*
G01*
X127061141Y-100049660D01*
X127061141Y-97798820D01*
X129063061Y-97798820D01*
X129063061Y-100049660D01*
X129063061Y-100049660D01*
G37*
G36*
X131810071Y-99899800D02*
G01*
X130410131Y-99899800D01*
X130410131Y-98598920D01*
X131810071Y-98598920D01*
X131810071Y-99899800D01*
X131810071Y-99899800D01*
G37*
G36*
X136449780Y-98900570D02*
G01*
X135550220Y-98900570D01*
X135550220Y-97200910D01*
X136449780Y-97200910D01*
X136449780Y-98900570D01*
X136449780Y-98900570D01*
G37*
G36*
X147311000Y-98776000D02*
G01*
X146609000Y-98776000D01*
X146609000Y-96674000D01*
X147311000Y-96674000D01*
X147311000Y-98776000D01*
X147311000Y-98776000D01*
G37*
G36*
X146041000Y-98776000D02*
G01*
X145339000Y-98776000D01*
X145339000Y-96674000D01*
X146041000Y-96674000D01*
X146041000Y-98776000D01*
X146041000Y-98776000D01*
G37*
G36*
X148581000Y-98776000D02*
G01*
X147879000Y-98776000D01*
X147879000Y-96674000D01*
X148581000Y-96674000D01*
X148581000Y-98776000D01*
X148581000Y-98776000D01*
G37*
G36*
X149851000Y-98776000D02*
G01*
X149149000Y-98776000D01*
X149149000Y-96674000D01*
X149851000Y-96674000D01*
X149851000Y-98776000D01*
X149851000Y-98776000D01*
G37*
G36*
X153661000Y-98776000D02*
G01*
X152959000Y-98776000D01*
X152959000Y-96674000D01*
X153661000Y-96674000D01*
X153661000Y-98776000D01*
X153661000Y-98776000D01*
G37*
G36*
X152391000Y-98776000D02*
G01*
X151689000Y-98776000D01*
X151689000Y-96674000D01*
X152391000Y-96674000D01*
X152391000Y-98776000D01*
X152391000Y-98776000D01*
G37*
G36*
X151121000Y-98776000D02*
G01*
X150419000Y-98776000D01*
X150419000Y-96674000D01*
X151121000Y-96674000D01*
X151121000Y-98776000D01*
X151121000Y-98776000D01*
G37*
G36*
X131484951Y-98225940D02*
G01*
X130034211Y-98225940D01*
X130034211Y-97869940D01*
X131484951Y-97869940D01*
X131484951Y-98225940D01*
X131484951Y-98225940D01*
G37*
G36*
X131484951Y-97575700D02*
G01*
X130034211Y-97575700D01*
X130034211Y-97219700D01*
X131484951Y-97219700D01*
X131484951Y-97575700D01*
X131484951Y-97575700D01*
G37*
G36*
X139449780Y-97400570D02*
G01*
X138550220Y-97400570D01*
X138550220Y-95700910D01*
X139449780Y-95700910D01*
X139449780Y-97400570D01*
X139449780Y-97400570D01*
G37*
G36*
X144418604Y-95328347D02*
G01*
X144455144Y-95339432D01*
X144488821Y-95357433D01*
X144518341Y-95381659D01*
X144542567Y-95411179D01*
X144560568Y-95444856D01*
X144571653Y-95481396D01*
X144576000Y-95525538D01*
X144576000Y-96974462D01*
X144571653Y-97018604D01*
X144560568Y-97055144D01*
X144542567Y-97088821D01*
X144518341Y-97118341D01*
X144488821Y-97142567D01*
X144455144Y-97160568D01*
X144418604Y-97171653D01*
X144374462Y-97176000D01*
X143425538Y-97176000D01*
X143381396Y-97171653D01*
X143344856Y-97160568D01*
X143311179Y-97142567D01*
X143281659Y-97118341D01*
X143257433Y-97088821D01*
X143239432Y-97055144D01*
X143228347Y-97018604D01*
X143224000Y-96974462D01*
X143224000Y-95525538D01*
X143228347Y-95481396D01*
X143239432Y-95444856D01*
X143257433Y-95411179D01*
X143281659Y-95381659D01*
X143311179Y-95357433D01*
X143344856Y-95339432D01*
X143381396Y-95328347D01*
X143425538Y-95324000D01*
X144374462Y-95324000D01*
X144418604Y-95328347D01*
X144418604Y-95328347D01*
G37*
G36*
X141618604Y-95328347D02*
G01*
X141655144Y-95339432D01*
X141688821Y-95357433D01*
X141718341Y-95381659D01*
X141742567Y-95411179D01*
X141760568Y-95444856D01*
X141771653Y-95481396D01*
X141776000Y-95525538D01*
X141776000Y-96974462D01*
X141771653Y-97018604D01*
X141760568Y-97055144D01*
X141742567Y-97088821D01*
X141718341Y-97118341D01*
X141688821Y-97142567D01*
X141655144Y-97160568D01*
X141618604Y-97171653D01*
X141574462Y-97176000D01*
X140625538Y-97176000D01*
X140581396Y-97171653D01*
X140544856Y-97160568D01*
X140511179Y-97142567D01*
X140481659Y-97118341D01*
X140457433Y-97088821D01*
X140439432Y-97055144D01*
X140428347Y-97018604D01*
X140424000Y-96974462D01*
X140424000Y-95525538D01*
X140428347Y-95481396D01*
X140439432Y-95444856D01*
X140457433Y-95411179D01*
X140481659Y-95381659D01*
X140511179Y-95357433D01*
X140544856Y-95339432D01*
X140581396Y-95328347D01*
X140625538Y-95324000D01*
X141574462Y-95324000D01*
X141618604Y-95328347D01*
X141618604Y-95328347D01*
G37*
G36*
X131484951Y-96928000D02*
G01*
X130034211Y-96928000D01*
X130034211Y-96572000D01*
X131484951Y-96572000D01*
X131484951Y-96928000D01*
X131484951Y-96928000D01*
G37*
G36*
X162701000Y-96551000D02*
G01*
X160599000Y-96551000D01*
X160599000Y-95949000D01*
X162701000Y-95949000D01*
X162701000Y-96551000D01*
X162701000Y-96551000D01*
G37*
G36*
X159401000Y-96551000D02*
G01*
X157299000Y-96551000D01*
X157299000Y-95949000D01*
X159401000Y-95949000D01*
X159401000Y-96551000D01*
X159401000Y-96551000D01*
G37*
G36*
X131484951Y-96280300D02*
G01*
X130034211Y-96280300D01*
X130034211Y-95924300D01*
X131484951Y-95924300D01*
X131484951Y-96280300D01*
X131484951Y-96280300D01*
G37*
G36*
X129063061Y-95701180D02*
G01*
X127061141Y-95701180D01*
X127061141Y-93450340D01*
X129063061Y-93450340D01*
X129063061Y-95701180D01*
X129063061Y-95701180D01*
G37*
G36*
X131484951Y-95630060D02*
G01*
X130034211Y-95630060D01*
X130034211Y-95274060D01*
X131484951Y-95274060D01*
X131484951Y-95630060D01*
X131484951Y-95630060D01*
G37*
G36*
X162701000Y-95551000D02*
G01*
X160599000Y-95551000D01*
X160599000Y-94949000D01*
X162701000Y-94949000D01*
X162701000Y-95551000D01*
X162701000Y-95551000D01*
G37*
G36*
X159401000Y-95551000D02*
G01*
X157299000Y-95551000D01*
X157299000Y-94949000D01*
X159401000Y-94949000D01*
X159401000Y-95551000D01*
X159401000Y-95551000D01*
G37*
G36*
X131810071Y-94901080D02*
G01*
X130410131Y-94901080D01*
X130410131Y-93600200D01*
X131810071Y-93600200D01*
X131810071Y-94901080D01*
X131810071Y-94901080D01*
G37*
G36*
X144318604Y-92828347D02*
G01*
X144355144Y-92839432D01*
X144388821Y-92857433D01*
X144418341Y-92881659D01*
X144442567Y-92911179D01*
X144460568Y-92944856D01*
X144471653Y-92981396D01*
X144476000Y-93025538D01*
X144476000Y-94474462D01*
X144471653Y-94518604D01*
X144460568Y-94555144D01*
X144442567Y-94588821D01*
X144418341Y-94618341D01*
X144388821Y-94642567D01*
X144355144Y-94660568D01*
X144318604Y-94671653D01*
X144274462Y-94676000D01*
X143325538Y-94676000D01*
X143281396Y-94671653D01*
X143244856Y-94660568D01*
X143211179Y-94642567D01*
X143181659Y-94618341D01*
X143157433Y-94588821D01*
X143139432Y-94555144D01*
X143128347Y-94518604D01*
X143124000Y-94474462D01*
X143124000Y-93025538D01*
X143128347Y-92981396D01*
X143139432Y-92944856D01*
X143157433Y-92911179D01*
X143181659Y-92881659D01*
X143211179Y-92857433D01*
X143244856Y-92839432D01*
X143281396Y-92828347D01*
X143325538Y-92824000D01*
X144274462Y-92824000D01*
X144318604Y-92828347D01*
X144318604Y-92828347D01*
G37*
G36*
X141518604Y-92828347D02*
G01*
X141555144Y-92839432D01*
X141588821Y-92857433D01*
X141618341Y-92881659D01*
X141642567Y-92911179D01*
X141660568Y-92944856D01*
X141671653Y-92981396D01*
X141676000Y-93025538D01*
X141676000Y-94474462D01*
X141671653Y-94518604D01*
X141660568Y-94555144D01*
X141642567Y-94588821D01*
X141618341Y-94618341D01*
X141588821Y-94642567D01*
X141555144Y-94660568D01*
X141518604Y-94671653D01*
X141474462Y-94676000D01*
X140525538Y-94676000D01*
X140481396Y-94671653D01*
X140444856Y-94660568D01*
X140411179Y-94642567D01*
X140381659Y-94618341D01*
X140357433Y-94588821D01*
X140339432Y-94555144D01*
X140328347Y-94518604D01*
X140324000Y-94474462D01*
X140324000Y-93025538D01*
X140328347Y-92981396D01*
X140339432Y-92944856D01*
X140357433Y-92911179D01*
X140381659Y-92881659D01*
X140411179Y-92857433D01*
X140444856Y-92839432D01*
X140481396Y-92828347D01*
X140525538Y-92824000D01*
X141474462Y-92824000D01*
X141518604Y-92828347D01*
X141518604Y-92828347D01*
G37*
G36*
X159401000Y-94551000D02*
G01*
X157299000Y-94551000D01*
X157299000Y-93949000D01*
X159401000Y-93949000D01*
X159401000Y-94551000D01*
X159401000Y-94551000D01*
G37*
G36*
X162701000Y-94551000D02*
G01*
X160599000Y-94551000D01*
X160599000Y-93949000D01*
X162701000Y-93949000D01*
X162701000Y-94551000D01*
X162701000Y-94551000D01*
G37*
G36*
X135268604Y-92978347D02*
G01*
X135305144Y-92989432D01*
X135338821Y-93007433D01*
X135368341Y-93031659D01*
X135392567Y-93061179D01*
X135410568Y-93094856D01*
X135421653Y-93131396D01*
X135426000Y-93175538D01*
X135426000Y-94124462D01*
X135421653Y-94168604D01*
X135410568Y-94205144D01*
X135392567Y-94238821D01*
X135368341Y-94268341D01*
X135338821Y-94292567D01*
X135305144Y-94310568D01*
X135268604Y-94321653D01*
X135224462Y-94326000D01*
X133775538Y-94326000D01*
X133731396Y-94321653D01*
X133694856Y-94310568D01*
X133661179Y-94292567D01*
X133631659Y-94268341D01*
X133607433Y-94238821D01*
X133589432Y-94205144D01*
X133578347Y-94168604D01*
X133574000Y-94124462D01*
X133574000Y-93175538D01*
X133578347Y-93131396D01*
X133589432Y-93094856D01*
X133607433Y-93061179D01*
X133631659Y-93031659D01*
X133661179Y-93007433D01*
X133694856Y-92989432D01*
X133731396Y-92978347D01*
X133775538Y-92974000D01*
X135224462Y-92974000D01*
X135268604Y-92978347D01*
X135268604Y-92978347D01*
G37*
G36*
X138268604Y-92978347D02*
G01*
X138305144Y-92989432D01*
X138338821Y-93007433D01*
X138368341Y-93031659D01*
X138392567Y-93061179D01*
X138410568Y-93094856D01*
X138421653Y-93131396D01*
X138426000Y-93175538D01*
X138426000Y-94124462D01*
X138421653Y-94168604D01*
X138410568Y-94205144D01*
X138392567Y-94238821D01*
X138368341Y-94268341D01*
X138338821Y-94292567D01*
X138305144Y-94310568D01*
X138268604Y-94321653D01*
X138224462Y-94326000D01*
X136775538Y-94326000D01*
X136731396Y-94321653D01*
X136694856Y-94310568D01*
X136661179Y-94292567D01*
X136631659Y-94268341D01*
X136607433Y-94238821D01*
X136589432Y-94205144D01*
X136578347Y-94168604D01*
X136574000Y-94124462D01*
X136574000Y-93175538D01*
X136578347Y-93131396D01*
X136589432Y-93094856D01*
X136607433Y-93061179D01*
X136631659Y-93031659D01*
X136661179Y-93007433D01*
X136694856Y-92989432D01*
X136731396Y-92978347D01*
X136775538Y-92974000D01*
X138224462Y-92974000D01*
X138268604Y-92978347D01*
X138268604Y-92978347D01*
G37*
G36*
X146041000Y-93826000D02*
G01*
X145339000Y-93826000D01*
X145339000Y-91724000D01*
X146041000Y-91724000D01*
X146041000Y-93826000D01*
X146041000Y-93826000D01*
G37*
G36*
X147311000Y-93826000D02*
G01*
X146609000Y-93826000D01*
X146609000Y-91724000D01*
X147311000Y-91724000D01*
X147311000Y-93826000D01*
X147311000Y-93826000D01*
G37*
G36*
X148581000Y-93826000D02*
G01*
X147879000Y-93826000D01*
X147879000Y-91724000D01*
X148581000Y-91724000D01*
X148581000Y-93826000D01*
X148581000Y-93826000D01*
G37*
G36*
X149851000Y-93826000D02*
G01*
X149149000Y-93826000D01*
X149149000Y-91724000D01*
X149851000Y-91724000D01*
X149851000Y-93826000D01*
X149851000Y-93826000D01*
G37*
G36*
X151121000Y-93826000D02*
G01*
X150419000Y-93826000D01*
X150419000Y-91724000D01*
X151121000Y-91724000D01*
X151121000Y-93826000D01*
X151121000Y-93826000D01*
G37*
G36*
X152391000Y-93826000D02*
G01*
X151689000Y-93826000D01*
X151689000Y-91724000D01*
X152391000Y-91724000D01*
X152391000Y-93826000D01*
X152391000Y-93826000D01*
G37*
G36*
X153661000Y-93826000D02*
G01*
X152959000Y-93826000D01*
X152959000Y-91724000D01*
X153661000Y-91724000D01*
X153661000Y-93826000D01*
X153661000Y-93826000D01*
G37*
G36*
X135268604Y-90178347D02*
G01*
X135305144Y-90189432D01*
X135338821Y-90207433D01*
X135368341Y-90231659D01*
X135392567Y-90261179D01*
X135410568Y-90294856D01*
X135421653Y-90331396D01*
X135426000Y-90375538D01*
X135426000Y-91324462D01*
X135421653Y-91368604D01*
X135410568Y-91405144D01*
X135392567Y-91438821D01*
X135368341Y-91468341D01*
X135338821Y-91492567D01*
X135305144Y-91510568D01*
X135268604Y-91521653D01*
X135224462Y-91526000D01*
X133775538Y-91526000D01*
X133731396Y-91521653D01*
X133694856Y-91510568D01*
X133661179Y-91492567D01*
X133631659Y-91468341D01*
X133607433Y-91438821D01*
X133589432Y-91405144D01*
X133578347Y-91368604D01*
X133574000Y-91324462D01*
X133574000Y-90375538D01*
X133578347Y-90331396D01*
X133589432Y-90294856D01*
X133607433Y-90261179D01*
X133631659Y-90231659D01*
X133661179Y-90207433D01*
X133694856Y-90189432D01*
X133731396Y-90178347D01*
X133775538Y-90174000D01*
X135224462Y-90174000D01*
X135268604Y-90178347D01*
X135268604Y-90178347D01*
G37*
G36*
X138268604Y-90178347D02*
G01*
X138305144Y-90189432D01*
X138338821Y-90207433D01*
X138368341Y-90231659D01*
X138392567Y-90261179D01*
X138410568Y-90294856D01*
X138421653Y-90331396D01*
X138426000Y-90375538D01*
X138426000Y-91324462D01*
X138421653Y-91368604D01*
X138410568Y-91405144D01*
X138392567Y-91438821D01*
X138368341Y-91468341D01*
X138338821Y-91492567D01*
X138305144Y-91510568D01*
X138268604Y-91521653D01*
X138224462Y-91526000D01*
X136775538Y-91526000D01*
X136731396Y-91521653D01*
X136694856Y-91510568D01*
X136661179Y-91492567D01*
X136631659Y-91468341D01*
X136607433Y-91438821D01*
X136589432Y-91405144D01*
X136578347Y-91368604D01*
X136574000Y-91324462D01*
X136574000Y-90375538D01*
X136578347Y-90331396D01*
X136589432Y-90294856D01*
X136607433Y-90261179D01*
X136631659Y-90231659D01*
X136661179Y-90207433D01*
X136694856Y-90189432D01*
X136731396Y-90178347D01*
X136775538Y-90174000D01*
X138224462Y-90174000D01*
X138268604Y-90178347D01*
X138268604Y-90178347D01*
G37*
G36*
X141901000Y-90801000D02*
G01*
X139799000Y-90801000D01*
X139799000Y-90199000D01*
X141901000Y-90199000D01*
X141901000Y-90801000D01*
X141901000Y-90801000D01*
G37*
G36*
X145201000Y-90801000D02*
G01*
X143099000Y-90801000D01*
X143099000Y-90199000D01*
X145201000Y-90199000D01*
X145201000Y-90801000D01*
X145201000Y-90801000D01*
G37*
M02*
