G04 #@! TF.GenerationSoftware,KiCad,Pcbnew,(5.1.4-0-10_14)*
G04 #@! TF.CreationDate,2020-11-07T12:11:02-05:00*
G04 #@! TF.ProjectId,FabISP,46616249-5350-42e6-9b69-6361645f7063,rev?*
G04 #@! TF.SameCoordinates,Original*
G04 #@! TF.FileFunction,Paste,Top*
G04 #@! TF.FilePolarity,Positive*
%FSLAX46Y46*%
G04 Gerber Fmt 4.6, Leading zero omitted, Abs format (unit mm)*
G04 Created by KiCad (PCBNEW (5.1.4-0-10_14)) date 2020-11-07 12:11:02*
%MOMM*%
%LPD*%
G04 APERTURE LIST*
%ADD10R,0.797560X1.597660*%
%ADD11R,0.600000X2.000000*%
%ADD12R,3.898900X0.797560*%
%ADD13R,1.348740X0.254000*%
%ADD14R,1.297940X1.198880*%
%ADD15R,1.899920X2.148840*%
%ADD16C,0.100000*%
%ADD17C,1.250000*%
%ADD18R,2.000000X0.500000*%
G04 APERTURE END LIST*
D10*
X136000000Y-98050740D03*
X136000000Y-101449260D03*
X139000000Y-96550740D03*
X139000000Y-99949260D03*
D11*
X145690000Y-97725000D03*
X146960000Y-97725000D03*
X148230000Y-97725000D03*
X149500000Y-97725000D03*
X150770000Y-97725000D03*
X152040000Y-97725000D03*
X153310000Y-97725000D03*
X153310000Y-92775000D03*
X152040000Y-92775000D03*
X150770000Y-92775000D03*
X149500000Y-92775000D03*
X148230000Y-92775000D03*
X146960000Y-92775000D03*
X145690000Y-92775000D03*
D12*
X148000000Y-103098740D03*
X148000000Y-101750000D03*
X148000000Y-100401260D03*
D13*
X130759581Y-96750000D03*
X130759581Y-96102300D03*
X130759581Y-98047940D03*
D14*
X131110101Y-94250640D03*
X131110101Y-99249360D03*
D15*
X128062101Y-94575760D03*
X128062101Y-98924240D03*
D13*
X130759581Y-97397700D03*
X130759581Y-95452060D03*
D16*
G36*
X162299504Y-103126204D02*
G01*
X162323773Y-103129804D01*
X162347571Y-103135765D01*
X162370671Y-103144030D01*
X162392849Y-103154520D01*
X162413893Y-103167133D01*
X162433598Y-103181747D01*
X162451777Y-103198223D01*
X162468253Y-103216402D01*
X162482867Y-103236107D01*
X162495480Y-103257151D01*
X162505970Y-103279329D01*
X162514235Y-103302429D01*
X162520196Y-103326227D01*
X162523796Y-103350496D01*
X162525000Y-103375000D01*
X162525000Y-104625000D01*
X162523796Y-104649504D01*
X162520196Y-104673773D01*
X162514235Y-104697571D01*
X162505970Y-104720671D01*
X162495480Y-104742849D01*
X162482867Y-104763893D01*
X162468253Y-104783598D01*
X162451777Y-104801777D01*
X162433598Y-104818253D01*
X162413893Y-104832867D01*
X162392849Y-104845480D01*
X162370671Y-104855970D01*
X162347571Y-104864235D01*
X162323773Y-104870196D01*
X162299504Y-104873796D01*
X162275000Y-104875000D01*
X161525000Y-104875000D01*
X161500496Y-104873796D01*
X161476227Y-104870196D01*
X161452429Y-104864235D01*
X161429329Y-104855970D01*
X161407151Y-104845480D01*
X161386107Y-104832867D01*
X161366402Y-104818253D01*
X161348223Y-104801777D01*
X161331747Y-104783598D01*
X161317133Y-104763893D01*
X161304520Y-104742849D01*
X161294030Y-104720671D01*
X161285765Y-104697571D01*
X161279804Y-104673773D01*
X161276204Y-104649504D01*
X161275000Y-104625000D01*
X161275000Y-103375000D01*
X161276204Y-103350496D01*
X161279804Y-103326227D01*
X161285765Y-103302429D01*
X161294030Y-103279329D01*
X161304520Y-103257151D01*
X161317133Y-103236107D01*
X161331747Y-103216402D01*
X161348223Y-103198223D01*
X161366402Y-103181747D01*
X161386107Y-103167133D01*
X161407151Y-103154520D01*
X161429329Y-103144030D01*
X161452429Y-103135765D01*
X161476227Y-103129804D01*
X161500496Y-103126204D01*
X161525000Y-103125000D01*
X162275000Y-103125000D01*
X162299504Y-103126204D01*
X162299504Y-103126204D01*
G37*
D17*
X161900000Y-104000000D03*
D16*
G36*
X159499504Y-103126204D02*
G01*
X159523773Y-103129804D01*
X159547571Y-103135765D01*
X159570671Y-103144030D01*
X159592849Y-103154520D01*
X159613893Y-103167133D01*
X159633598Y-103181747D01*
X159651777Y-103198223D01*
X159668253Y-103216402D01*
X159682867Y-103236107D01*
X159695480Y-103257151D01*
X159705970Y-103279329D01*
X159714235Y-103302429D01*
X159720196Y-103326227D01*
X159723796Y-103350496D01*
X159725000Y-103375000D01*
X159725000Y-104625000D01*
X159723796Y-104649504D01*
X159720196Y-104673773D01*
X159714235Y-104697571D01*
X159705970Y-104720671D01*
X159695480Y-104742849D01*
X159682867Y-104763893D01*
X159668253Y-104783598D01*
X159651777Y-104801777D01*
X159633598Y-104818253D01*
X159613893Y-104832867D01*
X159592849Y-104845480D01*
X159570671Y-104855970D01*
X159547571Y-104864235D01*
X159523773Y-104870196D01*
X159499504Y-104873796D01*
X159475000Y-104875000D01*
X158725000Y-104875000D01*
X158700496Y-104873796D01*
X158676227Y-104870196D01*
X158652429Y-104864235D01*
X158629329Y-104855970D01*
X158607151Y-104845480D01*
X158586107Y-104832867D01*
X158566402Y-104818253D01*
X158548223Y-104801777D01*
X158531747Y-104783598D01*
X158517133Y-104763893D01*
X158504520Y-104742849D01*
X158494030Y-104720671D01*
X158485765Y-104697571D01*
X158479804Y-104673773D01*
X158476204Y-104649504D01*
X158475000Y-104625000D01*
X158475000Y-103375000D01*
X158476204Y-103350496D01*
X158479804Y-103326227D01*
X158485765Y-103302429D01*
X158494030Y-103279329D01*
X158504520Y-103257151D01*
X158517133Y-103236107D01*
X158531747Y-103216402D01*
X158548223Y-103198223D01*
X158566402Y-103181747D01*
X158586107Y-103167133D01*
X158607151Y-103154520D01*
X158629329Y-103144030D01*
X158652429Y-103135765D01*
X158676227Y-103129804D01*
X158700496Y-103126204D01*
X158725000Y-103125000D01*
X159475000Y-103125000D01*
X159499504Y-103126204D01*
X159499504Y-103126204D01*
G37*
D17*
X159100000Y-104000000D03*
D18*
X158350000Y-94250000D03*
X161650000Y-94250000D03*
X158350000Y-95250000D03*
X161650000Y-95250000D03*
X158350000Y-96250000D03*
X161650000Y-96250000D03*
X152700000Y-102500000D03*
X156000000Y-102500000D03*
D16*
G36*
X162299504Y-100626204D02*
G01*
X162323773Y-100629804D01*
X162347571Y-100635765D01*
X162370671Y-100644030D01*
X162392849Y-100654520D01*
X162413893Y-100667133D01*
X162433598Y-100681747D01*
X162451777Y-100698223D01*
X162468253Y-100716402D01*
X162482867Y-100736107D01*
X162495480Y-100757151D01*
X162505970Y-100779329D01*
X162514235Y-100802429D01*
X162520196Y-100826227D01*
X162523796Y-100850496D01*
X162525000Y-100875000D01*
X162525000Y-102125000D01*
X162523796Y-102149504D01*
X162520196Y-102173773D01*
X162514235Y-102197571D01*
X162505970Y-102220671D01*
X162495480Y-102242849D01*
X162482867Y-102263893D01*
X162468253Y-102283598D01*
X162451777Y-102301777D01*
X162433598Y-102318253D01*
X162413893Y-102332867D01*
X162392849Y-102345480D01*
X162370671Y-102355970D01*
X162347571Y-102364235D01*
X162323773Y-102370196D01*
X162299504Y-102373796D01*
X162275000Y-102375000D01*
X161525000Y-102375000D01*
X161500496Y-102373796D01*
X161476227Y-102370196D01*
X161452429Y-102364235D01*
X161429329Y-102355970D01*
X161407151Y-102345480D01*
X161386107Y-102332867D01*
X161366402Y-102318253D01*
X161348223Y-102301777D01*
X161331747Y-102283598D01*
X161317133Y-102263893D01*
X161304520Y-102242849D01*
X161294030Y-102220671D01*
X161285765Y-102197571D01*
X161279804Y-102173773D01*
X161276204Y-102149504D01*
X161275000Y-102125000D01*
X161275000Y-100875000D01*
X161276204Y-100850496D01*
X161279804Y-100826227D01*
X161285765Y-100802429D01*
X161294030Y-100779329D01*
X161304520Y-100757151D01*
X161317133Y-100736107D01*
X161331747Y-100716402D01*
X161348223Y-100698223D01*
X161366402Y-100681747D01*
X161386107Y-100667133D01*
X161407151Y-100654520D01*
X161429329Y-100644030D01*
X161452429Y-100635765D01*
X161476227Y-100629804D01*
X161500496Y-100626204D01*
X161525000Y-100625000D01*
X162275000Y-100625000D01*
X162299504Y-100626204D01*
X162299504Y-100626204D01*
G37*
D17*
X161900000Y-101500000D03*
D16*
G36*
X159499504Y-100626204D02*
G01*
X159523773Y-100629804D01*
X159547571Y-100635765D01*
X159570671Y-100644030D01*
X159592849Y-100654520D01*
X159613893Y-100667133D01*
X159633598Y-100681747D01*
X159651777Y-100698223D01*
X159668253Y-100716402D01*
X159682867Y-100736107D01*
X159695480Y-100757151D01*
X159705970Y-100779329D01*
X159714235Y-100802429D01*
X159720196Y-100826227D01*
X159723796Y-100850496D01*
X159725000Y-100875000D01*
X159725000Y-102125000D01*
X159723796Y-102149504D01*
X159720196Y-102173773D01*
X159714235Y-102197571D01*
X159705970Y-102220671D01*
X159695480Y-102242849D01*
X159682867Y-102263893D01*
X159668253Y-102283598D01*
X159651777Y-102301777D01*
X159633598Y-102318253D01*
X159613893Y-102332867D01*
X159592849Y-102345480D01*
X159570671Y-102355970D01*
X159547571Y-102364235D01*
X159523773Y-102370196D01*
X159499504Y-102373796D01*
X159475000Y-102375000D01*
X158725000Y-102375000D01*
X158700496Y-102373796D01*
X158676227Y-102370196D01*
X158652429Y-102364235D01*
X158629329Y-102355970D01*
X158607151Y-102345480D01*
X158586107Y-102332867D01*
X158566402Y-102318253D01*
X158548223Y-102301777D01*
X158531747Y-102283598D01*
X158517133Y-102263893D01*
X158504520Y-102242849D01*
X158494030Y-102220671D01*
X158485765Y-102197571D01*
X158479804Y-102173773D01*
X158476204Y-102149504D01*
X158475000Y-102125000D01*
X158475000Y-100875000D01*
X158476204Y-100850496D01*
X158479804Y-100826227D01*
X158485765Y-100802429D01*
X158494030Y-100779329D01*
X158504520Y-100757151D01*
X158517133Y-100736107D01*
X158531747Y-100716402D01*
X158548223Y-100698223D01*
X158566402Y-100681747D01*
X158586107Y-100667133D01*
X158607151Y-100654520D01*
X158629329Y-100644030D01*
X158652429Y-100635765D01*
X158676227Y-100629804D01*
X158700496Y-100626204D01*
X158725000Y-100625000D01*
X159475000Y-100625000D01*
X159499504Y-100626204D01*
X159499504Y-100626204D01*
G37*
D17*
X159100000Y-101500000D03*
D16*
G36*
X141499504Y-95376204D02*
G01*
X141523773Y-95379804D01*
X141547571Y-95385765D01*
X141570671Y-95394030D01*
X141592849Y-95404520D01*
X141613893Y-95417133D01*
X141633598Y-95431747D01*
X141651777Y-95448223D01*
X141668253Y-95466402D01*
X141682867Y-95486107D01*
X141695480Y-95507151D01*
X141705970Y-95529329D01*
X141714235Y-95552429D01*
X141720196Y-95576227D01*
X141723796Y-95600496D01*
X141725000Y-95625000D01*
X141725000Y-96875000D01*
X141723796Y-96899504D01*
X141720196Y-96923773D01*
X141714235Y-96947571D01*
X141705970Y-96970671D01*
X141695480Y-96992849D01*
X141682867Y-97013893D01*
X141668253Y-97033598D01*
X141651777Y-97051777D01*
X141633598Y-97068253D01*
X141613893Y-97082867D01*
X141592849Y-97095480D01*
X141570671Y-97105970D01*
X141547571Y-97114235D01*
X141523773Y-97120196D01*
X141499504Y-97123796D01*
X141475000Y-97125000D01*
X140725000Y-97125000D01*
X140700496Y-97123796D01*
X140676227Y-97120196D01*
X140652429Y-97114235D01*
X140629329Y-97105970D01*
X140607151Y-97095480D01*
X140586107Y-97082867D01*
X140566402Y-97068253D01*
X140548223Y-97051777D01*
X140531747Y-97033598D01*
X140517133Y-97013893D01*
X140504520Y-96992849D01*
X140494030Y-96970671D01*
X140485765Y-96947571D01*
X140479804Y-96923773D01*
X140476204Y-96899504D01*
X140475000Y-96875000D01*
X140475000Y-95625000D01*
X140476204Y-95600496D01*
X140479804Y-95576227D01*
X140485765Y-95552429D01*
X140494030Y-95529329D01*
X140504520Y-95507151D01*
X140517133Y-95486107D01*
X140531747Y-95466402D01*
X140548223Y-95448223D01*
X140566402Y-95431747D01*
X140586107Y-95417133D01*
X140607151Y-95404520D01*
X140629329Y-95394030D01*
X140652429Y-95385765D01*
X140676227Y-95379804D01*
X140700496Y-95376204D01*
X140725000Y-95375000D01*
X141475000Y-95375000D01*
X141499504Y-95376204D01*
X141499504Y-95376204D01*
G37*
D17*
X141100000Y-96250000D03*
D16*
G36*
X144299504Y-95376204D02*
G01*
X144323773Y-95379804D01*
X144347571Y-95385765D01*
X144370671Y-95394030D01*
X144392849Y-95404520D01*
X144413893Y-95417133D01*
X144433598Y-95431747D01*
X144451777Y-95448223D01*
X144468253Y-95466402D01*
X144482867Y-95486107D01*
X144495480Y-95507151D01*
X144505970Y-95529329D01*
X144514235Y-95552429D01*
X144520196Y-95576227D01*
X144523796Y-95600496D01*
X144525000Y-95625000D01*
X144525000Y-96875000D01*
X144523796Y-96899504D01*
X144520196Y-96923773D01*
X144514235Y-96947571D01*
X144505970Y-96970671D01*
X144495480Y-96992849D01*
X144482867Y-97013893D01*
X144468253Y-97033598D01*
X144451777Y-97051777D01*
X144433598Y-97068253D01*
X144413893Y-97082867D01*
X144392849Y-97095480D01*
X144370671Y-97105970D01*
X144347571Y-97114235D01*
X144323773Y-97120196D01*
X144299504Y-97123796D01*
X144275000Y-97125000D01*
X143525000Y-97125000D01*
X143500496Y-97123796D01*
X143476227Y-97120196D01*
X143452429Y-97114235D01*
X143429329Y-97105970D01*
X143407151Y-97095480D01*
X143386107Y-97082867D01*
X143366402Y-97068253D01*
X143348223Y-97051777D01*
X143331747Y-97033598D01*
X143317133Y-97013893D01*
X143304520Y-96992849D01*
X143294030Y-96970671D01*
X143285765Y-96947571D01*
X143279804Y-96923773D01*
X143276204Y-96899504D01*
X143275000Y-96875000D01*
X143275000Y-95625000D01*
X143276204Y-95600496D01*
X143279804Y-95576227D01*
X143285765Y-95552429D01*
X143294030Y-95529329D01*
X143304520Y-95507151D01*
X143317133Y-95486107D01*
X143331747Y-95466402D01*
X143348223Y-95448223D01*
X143366402Y-95431747D01*
X143386107Y-95417133D01*
X143407151Y-95404520D01*
X143429329Y-95394030D01*
X143452429Y-95385765D01*
X143476227Y-95379804D01*
X143500496Y-95376204D01*
X143525000Y-95375000D01*
X144275000Y-95375000D01*
X144299504Y-95376204D01*
X144299504Y-95376204D01*
G37*
D17*
X143900000Y-96250000D03*
D16*
G36*
X135149504Y-90226204D02*
G01*
X135173773Y-90229804D01*
X135197571Y-90235765D01*
X135220671Y-90244030D01*
X135242849Y-90254520D01*
X135263893Y-90267133D01*
X135283598Y-90281747D01*
X135301777Y-90298223D01*
X135318253Y-90316402D01*
X135332867Y-90336107D01*
X135345480Y-90357151D01*
X135355970Y-90379329D01*
X135364235Y-90402429D01*
X135370196Y-90426227D01*
X135373796Y-90450496D01*
X135375000Y-90475000D01*
X135375000Y-91225000D01*
X135373796Y-91249504D01*
X135370196Y-91273773D01*
X135364235Y-91297571D01*
X135355970Y-91320671D01*
X135345480Y-91342849D01*
X135332867Y-91363893D01*
X135318253Y-91383598D01*
X135301777Y-91401777D01*
X135283598Y-91418253D01*
X135263893Y-91432867D01*
X135242849Y-91445480D01*
X135220671Y-91455970D01*
X135197571Y-91464235D01*
X135173773Y-91470196D01*
X135149504Y-91473796D01*
X135125000Y-91475000D01*
X133875000Y-91475000D01*
X133850496Y-91473796D01*
X133826227Y-91470196D01*
X133802429Y-91464235D01*
X133779329Y-91455970D01*
X133757151Y-91445480D01*
X133736107Y-91432867D01*
X133716402Y-91418253D01*
X133698223Y-91401777D01*
X133681747Y-91383598D01*
X133667133Y-91363893D01*
X133654520Y-91342849D01*
X133644030Y-91320671D01*
X133635765Y-91297571D01*
X133629804Y-91273773D01*
X133626204Y-91249504D01*
X133625000Y-91225000D01*
X133625000Y-90475000D01*
X133626204Y-90450496D01*
X133629804Y-90426227D01*
X133635765Y-90402429D01*
X133644030Y-90379329D01*
X133654520Y-90357151D01*
X133667133Y-90336107D01*
X133681747Y-90316402D01*
X133698223Y-90298223D01*
X133716402Y-90281747D01*
X133736107Y-90267133D01*
X133757151Y-90254520D01*
X133779329Y-90244030D01*
X133802429Y-90235765D01*
X133826227Y-90229804D01*
X133850496Y-90226204D01*
X133875000Y-90225000D01*
X135125000Y-90225000D01*
X135149504Y-90226204D01*
X135149504Y-90226204D01*
G37*
D17*
X134500000Y-90850000D03*
D16*
G36*
X135149504Y-93026204D02*
G01*
X135173773Y-93029804D01*
X135197571Y-93035765D01*
X135220671Y-93044030D01*
X135242849Y-93054520D01*
X135263893Y-93067133D01*
X135283598Y-93081747D01*
X135301777Y-93098223D01*
X135318253Y-93116402D01*
X135332867Y-93136107D01*
X135345480Y-93157151D01*
X135355970Y-93179329D01*
X135364235Y-93202429D01*
X135370196Y-93226227D01*
X135373796Y-93250496D01*
X135375000Y-93275000D01*
X135375000Y-94025000D01*
X135373796Y-94049504D01*
X135370196Y-94073773D01*
X135364235Y-94097571D01*
X135355970Y-94120671D01*
X135345480Y-94142849D01*
X135332867Y-94163893D01*
X135318253Y-94183598D01*
X135301777Y-94201777D01*
X135283598Y-94218253D01*
X135263893Y-94232867D01*
X135242849Y-94245480D01*
X135220671Y-94255970D01*
X135197571Y-94264235D01*
X135173773Y-94270196D01*
X135149504Y-94273796D01*
X135125000Y-94275000D01*
X133875000Y-94275000D01*
X133850496Y-94273796D01*
X133826227Y-94270196D01*
X133802429Y-94264235D01*
X133779329Y-94255970D01*
X133757151Y-94245480D01*
X133736107Y-94232867D01*
X133716402Y-94218253D01*
X133698223Y-94201777D01*
X133681747Y-94183598D01*
X133667133Y-94163893D01*
X133654520Y-94142849D01*
X133644030Y-94120671D01*
X133635765Y-94097571D01*
X133629804Y-94073773D01*
X133626204Y-94049504D01*
X133625000Y-94025000D01*
X133625000Y-93275000D01*
X133626204Y-93250496D01*
X133629804Y-93226227D01*
X133635765Y-93202429D01*
X133644030Y-93179329D01*
X133654520Y-93157151D01*
X133667133Y-93136107D01*
X133681747Y-93116402D01*
X133698223Y-93098223D01*
X133716402Y-93081747D01*
X133736107Y-93067133D01*
X133757151Y-93054520D01*
X133779329Y-93044030D01*
X133802429Y-93035765D01*
X133826227Y-93029804D01*
X133850496Y-93026204D01*
X133875000Y-93025000D01*
X135125000Y-93025000D01*
X135149504Y-93026204D01*
X135149504Y-93026204D01*
G37*
D17*
X134500000Y-93650000D03*
D16*
G36*
X138149504Y-90226204D02*
G01*
X138173773Y-90229804D01*
X138197571Y-90235765D01*
X138220671Y-90244030D01*
X138242849Y-90254520D01*
X138263893Y-90267133D01*
X138283598Y-90281747D01*
X138301777Y-90298223D01*
X138318253Y-90316402D01*
X138332867Y-90336107D01*
X138345480Y-90357151D01*
X138355970Y-90379329D01*
X138364235Y-90402429D01*
X138370196Y-90426227D01*
X138373796Y-90450496D01*
X138375000Y-90475000D01*
X138375000Y-91225000D01*
X138373796Y-91249504D01*
X138370196Y-91273773D01*
X138364235Y-91297571D01*
X138355970Y-91320671D01*
X138345480Y-91342849D01*
X138332867Y-91363893D01*
X138318253Y-91383598D01*
X138301777Y-91401777D01*
X138283598Y-91418253D01*
X138263893Y-91432867D01*
X138242849Y-91445480D01*
X138220671Y-91455970D01*
X138197571Y-91464235D01*
X138173773Y-91470196D01*
X138149504Y-91473796D01*
X138125000Y-91475000D01*
X136875000Y-91475000D01*
X136850496Y-91473796D01*
X136826227Y-91470196D01*
X136802429Y-91464235D01*
X136779329Y-91455970D01*
X136757151Y-91445480D01*
X136736107Y-91432867D01*
X136716402Y-91418253D01*
X136698223Y-91401777D01*
X136681747Y-91383598D01*
X136667133Y-91363893D01*
X136654520Y-91342849D01*
X136644030Y-91320671D01*
X136635765Y-91297571D01*
X136629804Y-91273773D01*
X136626204Y-91249504D01*
X136625000Y-91225000D01*
X136625000Y-90475000D01*
X136626204Y-90450496D01*
X136629804Y-90426227D01*
X136635765Y-90402429D01*
X136644030Y-90379329D01*
X136654520Y-90357151D01*
X136667133Y-90336107D01*
X136681747Y-90316402D01*
X136698223Y-90298223D01*
X136716402Y-90281747D01*
X136736107Y-90267133D01*
X136757151Y-90254520D01*
X136779329Y-90244030D01*
X136802429Y-90235765D01*
X136826227Y-90229804D01*
X136850496Y-90226204D01*
X136875000Y-90225000D01*
X138125000Y-90225000D01*
X138149504Y-90226204D01*
X138149504Y-90226204D01*
G37*
D17*
X137500000Y-90850000D03*
D16*
G36*
X138149504Y-93026204D02*
G01*
X138173773Y-93029804D01*
X138197571Y-93035765D01*
X138220671Y-93044030D01*
X138242849Y-93054520D01*
X138263893Y-93067133D01*
X138283598Y-93081747D01*
X138301777Y-93098223D01*
X138318253Y-93116402D01*
X138332867Y-93136107D01*
X138345480Y-93157151D01*
X138355970Y-93179329D01*
X138364235Y-93202429D01*
X138370196Y-93226227D01*
X138373796Y-93250496D01*
X138375000Y-93275000D01*
X138375000Y-94025000D01*
X138373796Y-94049504D01*
X138370196Y-94073773D01*
X138364235Y-94097571D01*
X138355970Y-94120671D01*
X138345480Y-94142849D01*
X138332867Y-94163893D01*
X138318253Y-94183598D01*
X138301777Y-94201777D01*
X138283598Y-94218253D01*
X138263893Y-94232867D01*
X138242849Y-94245480D01*
X138220671Y-94255970D01*
X138197571Y-94264235D01*
X138173773Y-94270196D01*
X138149504Y-94273796D01*
X138125000Y-94275000D01*
X136875000Y-94275000D01*
X136850496Y-94273796D01*
X136826227Y-94270196D01*
X136802429Y-94264235D01*
X136779329Y-94255970D01*
X136757151Y-94245480D01*
X136736107Y-94232867D01*
X136716402Y-94218253D01*
X136698223Y-94201777D01*
X136681747Y-94183598D01*
X136667133Y-94163893D01*
X136654520Y-94142849D01*
X136644030Y-94120671D01*
X136635765Y-94097571D01*
X136629804Y-94073773D01*
X136626204Y-94049504D01*
X136625000Y-94025000D01*
X136625000Y-93275000D01*
X136626204Y-93250496D01*
X136629804Y-93226227D01*
X136635765Y-93202429D01*
X136644030Y-93179329D01*
X136654520Y-93157151D01*
X136667133Y-93136107D01*
X136681747Y-93116402D01*
X136698223Y-93098223D01*
X136716402Y-93081747D01*
X136736107Y-93067133D01*
X136757151Y-93054520D01*
X136779329Y-93044030D01*
X136802429Y-93035765D01*
X136826227Y-93029804D01*
X136850496Y-93026204D01*
X136875000Y-93025000D01*
X138125000Y-93025000D01*
X138149504Y-93026204D01*
X138149504Y-93026204D01*
G37*
D17*
X137500000Y-93650000D03*
D16*
G36*
X144199504Y-92876204D02*
G01*
X144223773Y-92879804D01*
X144247571Y-92885765D01*
X144270671Y-92894030D01*
X144292849Y-92904520D01*
X144313893Y-92917133D01*
X144333598Y-92931747D01*
X144351777Y-92948223D01*
X144368253Y-92966402D01*
X144382867Y-92986107D01*
X144395480Y-93007151D01*
X144405970Y-93029329D01*
X144414235Y-93052429D01*
X144420196Y-93076227D01*
X144423796Y-93100496D01*
X144425000Y-93125000D01*
X144425000Y-94375000D01*
X144423796Y-94399504D01*
X144420196Y-94423773D01*
X144414235Y-94447571D01*
X144405970Y-94470671D01*
X144395480Y-94492849D01*
X144382867Y-94513893D01*
X144368253Y-94533598D01*
X144351777Y-94551777D01*
X144333598Y-94568253D01*
X144313893Y-94582867D01*
X144292849Y-94595480D01*
X144270671Y-94605970D01*
X144247571Y-94614235D01*
X144223773Y-94620196D01*
X144199504Y-94623796D01*
X144175000Y-94625000D01*
X143425000Y-94625000D01*
X143400496Y-94623796D01*
X143376227Y-94620196D01*
X143352429Y-94614235D01*
X143329329Y-94605970D01*
X143307151Y-94595480D01*
X143286107Y-94582867D01*
X143266402Y-94568253D01*
X143248223Y-94551777D01*
X143231747Y-94533598D01*
X143217133Y-94513893D01*
X143204520Y-94492849D01*
X143194030Y-94470671D01*
X143185765Y-94447571D01*
X143179804Y-94423773D01*
X143176204Y-94399504D01*
X143175000Y-94375000D01*
X143175000Y-93125000D01*
X143176204Y-93100496D01*
X143179804Y-93076227D01*
X143185765Y-93052429D01*
X143194030Y-93029329D01*
X143204520Y-93007151D01*
X143217133Y-92986107D01*
X143231747Y-92966402D01*
X143248223Y-92948223D01*
X143266402Y-92931747D01*
X143286107Y-92917133D01*
X143307151Y-92904520D01*
X143329329Y-92894030D01*
X143352429Y-92885765D01*
X143376227Y-92879804D01*
X143400496Y-92876204D01*
X143425000Y-92875000D01*
X144175000Y-92875000D01*
X144199504Y-92876204D01*
X144199504Y-92876204D01*
G37*
D17*
X143800000Y-93750000D03*
D16*
G36*
X141399504Y-92876204D02*
G01*
X141423773Y-92879804D01*
X141447571Y-92885765D01*
X141470671Y-92894030D01*
X141492849Y-92904520D01*
X141513893Y-92917133D01*
X141533598Y-92931747D01*
X141551777Y-92948223D01*
X141568253Y-92966402D01*
X141582867Y-92986107D01*
X141595480Y-93007151D01*
X141605970Y-93029329D01*
X141614235Y-93052429D01*
X141620196Y-93076227D01*
X141623796Y-93100496D01*
X141625000Y-93125000D01*
X141625000Y-94375000D01*
X141623796Y-94399504D01*
X141620196Y-94423773D01*
X141614235Y-94447571D01*
X141605970Y-94470671D01*
X141595480Y-94492849D01*
X141582867Y-94513893D01*
X141568253Y-94533598D01*
X141551777Y-94551777D01*
X141533598Y-94568253D01*
X141513893Y-94582867D01*
X141492849Y-94595480D01*
X141470671Y-94605970D01*
X141447571Y-94614235D01*
X141423773Y-94620196D01*
X141399504Y-94623796D01*
X141375000Y-94625000D01*
X140625000Y-94625000D01*
X140600496Y-94623796D01*
X140576227Y-94620196D01*
X140552429Y-94614235D01*
X140529329Y-94605970D01*
X140507151Y-94595480D01*
X140486107Y-94582867D01*
X140466402Y-94568253D01*
X140448223Y-94551777D01*
X140431747Y-94533598D01*
X140417133Y-94513893D01*
X140404520Y-94492849D01*
X140394030Y-94470671D01*
X140385765Y-94447571D01*
X140379804Y-94423773D01*
X140376204Y-94399504D01*
X140375000Y-94375000D01*
X140375000Y-93125000D01*
X140376204Y-93100496D01*
X140379804Y-93076227D01*
X140385765Y-93052429D01*
X140394030Y-93029329D01*
X140404520Y-93007151D01*
X140417133Y-92986107D01*
X140431747Y-92966402D01*
X140448223Y-92948223D01*
X140466402Y-92931747D01*
X140486107Y-92917133D01*
X140507151Y-92904520D01*
X140529329Y-92894030D01*
X140552429Y-92885765D01*
X140576227Y-92879804D01*
X140600496Y-92876204D01*
X140625000Y-92875000D01*
X141375000Y-92875000D01*
X141399504Y-92876204D01*
X141399504Y-92876204D01*
G37*
D17*
X141000000Y-93750000D03*
D18*
X144150000Y-90500000D03*
X140850000Y-90500000D03*
M02*
